<svg width="301" height="30" viewBox="0 0 301 30" fill="none" xmlns="http://www.w3.org/2000/svg">
<path d="M14.2366 0.999998C16.8232 0.999998 19.0766 1.42666 20.9966 2.28C22.9166 3.13333 24.3966 4.36 25.4366 5.96C26.4766 7.56 26.9966 9.42667 26.9966 11.56C26.9966 13.6933 26.4766 15.56 25.4366 17.16C24.3966 18.76 22.9166 19.9867 20.9966 20.84C19.0766 21.6933 16.8232 22.12 14.2366 22.12H10.1966V29H0.756563V0.999998H14.2366ZM13.6366 14.84C14.9166 14.84 15.8766 14.56 16.5166 14C17.1566 13.4133 17.4766 12.6 17.4766 11.56C17.4766 10.52 17.1566 9.72 16.5166 9.16C15.8766 8.57333 14.9166 8.28 13.6366 8.28H10.1966V14.84H13.6366ZM30.0925 0.999998H39.5325V21.68H52.1725V29H30.0925V0.999998ZM74.2506 24.12H63.6106L61.7306 29H52.1306L64.3706 0.999998H73.6506L85.8906 29H76.1306L74.2506 24.12ZM71.6506 17.32L68.9306 10.28L66.2106 17.32H71.6506ZM102.24 18.84V29H92.8003V18.72L82.2403 0.999998H92.2003L97.9203 10.68L103.68 0.999998H112.8L102.24 18.84ZM131.308 14.24H139.508V26.08C137.854 27.2267 135.934 28.1067 133.748 28.72C131.561 29.3333 129.414 29.64 127.308 29.64C124.321 29.64 121.641 29.0267 119.268 27.8C116.894 26.5467 115.028 24.8133 113.668 22.6C112.334 20.36 111.668 17.8267 111.668 15C111.668 12.1733 112.334 9.65333 113.668 7.44C115.028 5.2 116.908 3.46667 119.308 2.24C121.734 0.986666 124.468 0.359999 127.508 0.359999C130.254 0.359999 132.708 0.826665 134.868 1.76C137.054 2.66667 138.868 4 140.308 5.76L134.268 11.08C132.508 9.02667 130.414 8 127.988 8C125.908 8 124.254 8.62667 123.028 9.88C121.801 11.1333 121.188 12.84 121.188 15C121.188 17.1067 121.788 18.8 122.988 20.08C124.214 21.36 125.841 22 127.868 22C129.068 22 130.214 21.7733 131.308 21.32V14.24ZM155.53 21.96H152.97V29H143.53V0.999998H157.01C159.597 0.999998 161.85 1.42666 163.77 2.28C165.69 3.13333 167.17 4.36 168.21 5.96C169.25 7.56 169.77 9.42667 169.77 11.56C169.77 13.56 169.317 15.3067 168.41 16.8C167.503 18.2933 166.197 19.48 164.49 20.36L170.37 29H160.29L155.53 21.96ZM160.25 11.56C160.25 10.52 159.93 9.72 159.29 9.16C158.65 8.57333 157.69 8.28 156.41 8.28H152.97V14.84H156.41C157.69 14.84 158.65 14.56 159.29 14C159.93 13.4133 160.25 12.6 160.25 11.56ZM188.015 29.64C185.001 29.64 182.295 29.0133 179.895 27.76C177.495 26.5067 175.615 24.7733 174.255 22.56C172.895 20.32 172.215 17.8 172.215 15C172.215 12.2 172.895 9.69333 174.255 7.48C175.615 5.24 177.495 3.49333 179.895 2.24C182.295 0.986666 185.001 0.359999 188.015 0.359999C191.028 0.359999 193.735 0.986666 196.135 2.24C198.535 3.49333 200.415 5.24 201.775 7.48C203.135 9.69333 203.815 12.2 203.815 15C203.815 17.8 203.135 20.32 201.775 22.56C200.415 24.7733 198.535 26.5067 196.135 27.76C193.735 29.0133 191.028 29.64 188.015 29.64ZM188.015 22C189.188 22 190.241 21.72 191.175 21.16C192.135 20.5733 192.895 19.76 193.455 18.72C194.015 17.6533 194.295 16.4133 194.295 15C194.295 13.5867 194.015 12.36 193.455 11.32C192.895 10.2533 192.135 9.44 191.175 8.88C190.241 8.29333 189.188 8 188.015 8C186.841 8 185.775 8.29333 184.815 8.88C183.881 9.44 183.135 10.2533 182.575 11.32C182.015 12.36 181.735 13.5867 181.735 15C181.735 16.4133 182.015 17.6533 182.575 18.72C183.135 19.76 183.881 20.5733 184.815 21.16C185.775 21.72 186.841 22 188.015 22ZM220.641 29.64C216.348 29.64 213.001 28.48 210.601 26.16C208.201 23.84 207.001 20.5867 207.001 16.4V0.999998H216.441V16.12C216.441 18.1733 216.801 19.6667 217.521 20.6C218.268 21.5333 219.334 22 220.721 22C222.108 22 223.161 21.5333 223.881 20.6C224.628 19.6667 225.001 18.1733 225.001 16.12V0.999998H234.281V16.4C234.281 20.5867 233.081 23.84 230.681 26.16C228.281 28.48 224.934 29.64 220.641 29.64ZM266.208 0.999998V29H258.448L247.808 16.28V29H238.608V0.999998H246.368L257.008 13.72V0.999998H266.208ZM270.757 0.999998H284.557C287.677 0.999998 290.423 1.57333 292.797 2.72C295.197 3.84 297.05 5.45333 298.357 7.56C299.69 9.66667 300.357 12.1467 300.357 15C300.357 17.8533 299.69 20.3333 298.357 22.44C297.05 24.5467 295.197 26.1733 292.797 27.32C290.423 28.44 287.677 29 284.557 29H270.757V0.999998ZM284.157 21.64C286.183 21.64 287.797 21.0667 288.997 19.92C290.223 18.7467 290.837 17.1067 290.837 15C290.837 12.8933 290.223 11.2667 288.997 10.12C287.797 8.94667 286.183 8.36 284.157 8.36H280.197V21.64H284.157Z" fill="#003367"/>
</svg>
